<svg width="486" height="508" viewBox="0 0 486 508" fill="none" xmlns="http://www.w3.org/2000/svg">
<g id="Group">
<g id="Wood">
<g id="Group_2">
<path id="Vector" d="M235.92 437.812L210.032 463.704L215.784 488.932C217.796 497.748 225.632 504 234.676 504H261.7C269.604 504 276.716 499.2 279.672 491.872L291.032 463.704L271.544 444.216L235.92 437.812Z" fill="#693940"/>
</g>
<g id="Group_3">
<path id="Vector_2" d="M177.364 437.812L45.284 427.888C34.124 427.048 24.608 435.88 24.608 447.072L4.984 472.964V504H73.828C74.944 504 76.056 503.904 77.156 503.712L177.364 486.112V437.812Z" fill="#693940"/>
</g>
<g id="Group_4">
<path id="Vector_3" d="M4.984 476.964C3.152 476.964 1.5 475.7 1.084 473.84C0.600001 471.684 1.956 469.544 4.112 469.064L57.864 457.016C58.152 456.952 58.444 456.92 58.74 456.92H130.084C132.292 456.92 134.084 458.712 134.084 460.92C134.084 463.128 132.292 464.92 130.084 464.92H59.18L5.86 476.868C5.568 476.932 5.272 476.964 4.984 476.964V476.964Z" fill="black"/>
</g>
<g id="Group_5">
<path id="Vector_4" d="M316.924 463.704V444L384.028 428.212H435.956C451.992 428.212 466.828 436.712 474.94 450.548L481.02 460.92V504H405.76C400.708 504 395.692 503.152 390.924 501.496L316.924 463.704Z" fill="#693940"/>
</g>
<g id="Group_6">
<path id="Vector_5" d="M261.7 508H234.676C223.7 508 214.328 500.524 211.884 489.824L206.132 464.596C205.828 463.256 206.232 461.852 207.204 460.88L233.092 434.984C234.016 434.06 235.34 433.652 236.628 433.876L272.248 440.284C273.052 440.428 273.792 440.816 274.368 441.392L293.856 460.88C294.992 462.016 295.34 463.716 294.736 465.204L283.376 493.372C279.796 502.256 271.284 508 261.7 508ZM214.424 464.972L219.684 488.044C221.288 495.084 227.456 500 234.676 500H261.7C268.004 500 273.6 496.224 275.96 490.376L286.328 464.664L269.596 447.932L237.268 442.116L214.424 464.972Z" fill="black"/>
</g>
<g id="Group_7">
<path id="Vector_6" d="M73.832 508H4.988C2.78 508 0.987999 506.208 0.987999 504V472.964C0.987999 472.092 1.272 471.244 1.8 470.548L20.652 445.668C21.012 439.732 23.66 434.096 28.044 430.032C32.768 425.648 39.136 423.42 45.588 423.896L177.668 433.816C179.756 433.972 181.368 435.712 181.368 437.804V486.104C181.368 488.044 179.972 489.708 178.06 490.044L154.476 494.188C152.272 494.564 150.224 493.116 149.844 490.94C149.46 488.764 150.916 486.692 153.092 486.308L173.368 482.744V441.52L44.988 431.876C40.692 431.568 36.628 432.984 33.484 435.9C30.34 438.816 28.608 442.784 28.608 447.068C28.608 447.94 28.324 448.788 27.796 449.484L8.988 474.308V500H73.832C74.712 500 75.596 499.92 76.468 499.768L127.756 490.764C129.936 490.372 132.008 491.836 132.388 494.012C132.772 496.188 131.316 498.264 129.14 498.644L77.852 507.648C76.524 507.88 75.172 508 73.832 508V508Z" fill="black"/>
</g>
<g id="Group_8">
<path id="Vector_7" d="M481.012 508H405.752C400.244 508 394.808 507.084 389.6 505.272C389.428 505.212 389.26 505.14 389.096 505.056L315.104 467.268C313.764 466.584 312.924 465.208 312.924 463.704V444C312.924 442.144 314.2 440.532 316.008 440.104L383.108 424.316C383.408 424.244 383.716 424.212 384.024 424.212H435.948C436.072 424.212 436.512 424.236 436.636 424.248C438.768 424.452 440.512 426.308 440.4 428.448C440.288 430.588 438.652 432.164 436.516 432.252C436.404 432.252 435.992 432.224 435.88 432.216H384.484L320.916 447.172V461.256L392.476 497.804C396.756 499.264 401.22 500 405.744 500H477.004V462.004L471.476 452.572C467.272 445.4 460.976 439.716 453.276 436.132C451.276 435.2 450.404 432.82 451.336 430.816C452.268 428.812 454.648 427.952 456.652 428.876C465.832 433.148 473.344 439.94 478.38 448.524L484.46 458.896C484.82 459.512 485.008 460.208 485.008 460.92V504C485.012 506.208 483.224 508 481.012 508V508Z" fill="black"/>
</g>
<g id="Group_9">
<path id="Vector_8" d="M481.012 464.916H425.188C424.968 464.916 424.752 464.9 424.536 464.864L404.084 461.48C401.904 461.12 400.428 459.06 400.788 456.88C401.148 454.7 403.208 453.244 405.388 453.584L425.516 456.916H481.012C483.22 456.916 485.012 458.708 485.012 460.916C485.012 463.124 483.224 464.916 481.012 464.916V464.916Z" fill="black"/>
</g>
</g>
<g id="smoke1">
<g id="Group_10">
<path id="Vector_9" d="M206.467 96.8044C205.691 96.8044 204.903 96.5764 204.215 96.1084C202.391 94.8604 201.923 92.3724 203.171 90.5484C203.519 90.0324 211.759 77.4764 203.211 65.4204C193.687 51.9844 199.103 38.0604 203.295 32.5724C204.631 30.8204 207.143 30.4764 208.903 31.8244C210.655 33.1644 210.991 35.6644 209.659 37.4204C209.259 37.9564 201.319 48.9204 209.739 60.7924C221.551 77.4524 210.263 94.3524 209.779 95.0644C208.999 96.1964 207.743 96.8044 206.467 96.8044V96.8044Z" fill="black"/>
</g>
<g id="Group_11">
<path id="Vector_10" d="M125.995 146.792C125.219 146.792 124.431 146.564 123.743 146.096C121.919 144.848 121.451 142.36 122.699 140.536C123.047 140.02 131.287 127.464 122.739 115.404C121.463 113.604 121.887 111.104 123.691 109.828C125.495 108.548 127.987 108.976 129.267 110.78C141.079 127.444 129.791 144.344 129.307 145.052C128.523 146.18 127.271 146.792 125.995 146.792V146.792Z" fill="black"/>
</g>
</g>
<g id="smoke2">
<g id="Group_12">
<path id="Vector_11" d="M235.642 80.988C236.418 80.988 237.206 81.216 237.894 81.684C239.718 82.932 240.186 85.42 238.938 87.244C238.59 87.76 230.35 100.316 238.898 112.372C248.422 125.808 243.006 139.732 238.814 145.22C237.478 146.972 234.966 147.316 233.206 145.968C231.454 144.628 231.118 142.128 232.45 140.372C232.85 139.836 240.79 128.872 232.37 117C220.558 100.34 231.846 83.44 232.33 82.728C233.11 81.596 234.366 80.988 235.642 80.988V80.988Z" fill="black"/>
</g>
<g id="Group_13">
<path id="Vector_12" d="M316.114 31C316.89 31 317.678 31.228 318.366 31.696C320.19 32.944 320.658 35.432 319.41 37.256C319.062 37.772 310.822 50.328 319.37 62.388C320.646 64.188 320.222 66.688 318.418 67.964C316.614 69.244 314.122 68.816 312.842 67.012C301.03 50.348 312.318 33.448 312.802 32.74C313.586 31.612 314.838 31 316.114 31V31Z" fill="black"/>
</g>
</g>
<g id="Stick">
<g id="Group_14">
<path id="Vector_13" d="M411.204 25.688C411.204 30.964 409.22 36.244 405.248 40.348L318.232 132.78H278.036L373.356 12.74C380.756 3.13198 394.74 1.73198 403.896 9.67198C408.724 13.868 411.204 19.776 411.204 25.688V25.688Z" fill="#693940"/>
</g>
<g id="Group_15">
<path id="Vector_14" d="M318.232 136.78H278.036C276.5 136.78 275.1 135.9 274.436 134.52C273.768 133.136 273.948 131.496 274.904 130.292L370.224 10.252C374.444 4.77199 380.616 1.34399 387.564 0.647987C394.52 -0.0480126 401.248 2.07999 406.516 6.65199C412.036 11.452 415.204 18.388 415.204 25.688C415.204 32.216 412.692 38.408 408.124 43.128L321.144 135.524C320.388 136.328 319.332 136.78 318.232 136.78ZM286.32 128.78H316.5L402.336 37.604C405.488 34.344 407.204 30.124 407.204 25.688C407.204 20.704 405.04 15.968 401.272 12.692C397.684 9.57999 393.108 8.13599 388.36 8.60799C383.624 9.08399 379.424 11.42 376.524 15.184L286.32 128.78Z" fill="black"/>
</g>
<g id="Group_16">
<path id="Vector_15" d="M370.9 58.712C369.924 58.712 368.948 58.36 368.176 57.64C366.556 56.14 366.464 53.608 367.968 51.988L405.18 11.936C406.684 10.316 409.216 10.22 410.832 11.728C412.452 13.228 412.544 15.76 411.04 17.38L373.828 57.432C373.044 58.28 371.972 58.712 370.9 58.712Z" fill="black"/>
</g>
<g id="Group_17">
<path id="Vector_16" d="M297.196 136.776C296.332 136.776 295.46 136.496 294.728 135.924C292.992 134.56 292.688 132.044 294.052 130.308L319.476 97.924C320.84 96.184 323.356 95.884 325.092 97.248C326.828 98.612 327.132 101.128 325.768 102.864L300.344 135.248C299.556 136.252 298.38 136.776 297.196 136.776V136.776Z" fill="black"/>
</g>
</g>
<g id="body">
<g id="Group_18">
<path id="Vector_17" d="M361.144 170.48H125.568C115.996 170.48 108.236 162.72 108.236 153.148V150.108C108.236 140.536 115.996 132.776 125.568 132.776H361.144C370.716 132.776 378.476 140.536 378.476 150.108V153.148C378.476 162.72 370.716 170.48 361.144 170.48Z" fill="#2C2527"/>
</g>
<g id="Group_19">
<path id="Vector_18" d="M378.472 150.12V153.148C378.472 155.76 377.892 158.208 376.856 160.448C374.12 154.516 368.104 150.412 361.136 150.412H125.552C118.624 150.412 112.612 154.52 109.876 160.448C108.84 158.208 108.26 155.76 108.26 153.148V150.12C108.26 140.54 116.016 132.784 125.556 132.784H361.14C370.716 132.78 378.472 140.536 378.472 150.12Z" fill="#403539"/>
</g>
<g id="Group_20">
<path id="Vector_19" d="M411.204 350.892V380.98C411.204 395.236 407.552 408.948 400.872 420.992C399.52 423.472 397.984 425.864 396.316 428.212H384.044L316.924 444V463.712H291.032L271.544 444.224L235.908 437.82L210.016 463.712H177.356V437.82L92.728 431.46C81.72 417.204 75.496 399.52 75.496 380.98V350.892C75.496 313.18 83.976 276.008 100.216 241.992L134.408 170.492H352.296L386.488 241.992C402.768 276.008 411.204 313.18 411.204 350.892V350.892Z" fill="#403539"/>
</g>
<g id="Group_21">
<path id="Vector_20" d="M75.488 376.62C73.28 376.62 71.488 374.828 71.488 372.62V350.892C71.488 312.928 80.172 274.676 96.6 240.272L130.796 168.768C131.464 167.38 132.864 166.496 134.404 166.496H165.152C167.36 166.496 169.152 168.288 169.152 170.496C169.152 172.704 167.36 174.496 165.152 174.496H136.924L103.82 243.72C87.904 277.052 79.488 314.116 79.488 350.892V372.62C79.488 374.828 77.696 376.62 75.488 376.62V376.62Z" fill="black"/>
</g>
<g id="Group_22">
<path id="Vector_21" d="M375.3 222.604C373.808 222.604 372.376 221.768 371.688 220.332L349.768 174.496H184.708C182.5 174.496 180.708 172.704 180.708 170.496C180.708 168.288 182.5 166.496 184.708 166.496H352.292C353.832 166.496 355.236 167.38 355.9 168.768L378.908 216.88C379.86 218.876 379.016 221.264 377.024 222.216C376.468 222.48 375.88 222.604 375.3 222.604V222.604Z" fill="black"/>
</g>
<g id="Group_23">
<path id="Vector_22" d="M316.924 467.716H291.028C289.968 467.716 288.948 467.296 288.2 466.544L269.6 447.944L237.256 442.128L212.84 466.544C212.088 467.296 211.072 467.716 210.012 467.716H177.352C175.144 467.716 173.352 465.924 173.352 463.716V441.532L92.424 435.448C91.292 435.364 90.252 434.8 89.556 433.904C81.212 423.096 75.48 410.236 72.976 396.712C72.572 394.54 74.008 392.452 76.18 392.048C78.352 391.652 80.44 393.08 80.844 395.252C83.008 406.948 87.832 418.096 94.828 427.6L177.652 433.824C179.74 433.98 181.352 435.72 181.352 437.812V459.708H208.356L233.08 434.984C234.004 434.06 235.336 433.656 236.616 433.876L272.252 440.284C273.056 440.428 273.796 440.816 274.372 441.392L292.688 459.708H312.928V444C312.928 442.144 314.204 440.532 316.012 440.104L383.136 424.316C383.436 424.244 383.744 424.212 384.052 424.212H394.228C395.416 422.448 396.452 420.756 397.368 419.076C403.812 407.452 407.208 394.288 407.208 380.98V350.892C407.208 314.144 398.84 277.192 383.012 244.016C382.06 242.02 382.904 239.636 384.9 238.684C386.892 237.728 389.28 238.576 390.232 240.572C406.572 274.816 415.212 312.964 415.212 350.892V380.98C415.212 395.64 411.464 410.148 404.38 422.932C403.036 425.392 401.464 427.888 399.584 430.528C398.832 431.584 397.62 432.208 396.324 432.208H384.52L320.932 447.164V463.708C320.924 465.924 319.132 467.716 316.924 467.716V467.716Z" fill="black"/>
</g>
<g id="Group_24">
<path id="Vector_23" d="M361.144 174.48H184.708C182.5 174.48 180.708 172.688 180.708 170.48C180.708 168.272 182.5 166.48 184.708 166.48H361.144C368.496 166.48 374.476 160.5 374.476 153.148V150.108C374.476 142.756 368.496 136.776 361.144 136.776H125.568C118.22 136.776 112.236 142.756 112.236 150.108V153.148C112.236 160.496 118.216 166.48 125.568 166.48H165.152C167.36 166.48 169.152 168.272 169.152 170.48C169.152 172.688 167.36 174.48 165.152 174.48H125.568C113.808 174.48 104.236 164.912 104.236 153.148V150.108C104.236 138.348 113.804 128.776 125.568 128.776H361.144C372.904 128.776 382.476 138.348 382.476 150.108V153.148C382.476 164.912 372.908 174.48 361.144 174.48Z" fill="black"/>
</g>
<path id="Vector_24" d="M358.912 192.872H123L132 174H349.912L358.912 192.872Z" fill="#181617"/>
</g>
<g id="Fire">
<g id="Group_25">
<path id="Vector_25" d="M331.312 440.616L316.924 444V463.712H291.032L271.544 444.224L235.908 437.82L210.016 463.712H177.356V437.82L150.02 435.744C140.412 424.42 122.368 391.264 137.48 343.04C137.48 343.04 153.496 375.836 177.492 372.408C177.492 372.408 176.5 328.56 231.896 288.684V342.728C231.896 342.728 291.216 330.864 291.216 255.708C291.216 255.708 337.952 331 314.764 380.484C314.764 380.484 341.832 383.28 355.544 358.56C355.536 358.56 372.228 402.228 331.312 440.616V440.616Z" fill="#FF0000"/>
</g>
<g id="Group_26">
<path id="Vector_26" d="M300.872 414.444C300.872 414.444 293.78 436.344 279.512 452.188L271.548 444.224L235.92 437.796L216.052 457.704C194.36 441.28 188.76 411.376 188.76 411.376L193.072 413.036C200.536 415.98 208.876 412.288 211.984 404.908C218.828 388.648 235.668 381.848 235.668 381.848C235.668 390.6 242.884 396.572 250.432 396.572C253.708 396.572 257.028 395.452 259.888 392.924C269.18 384.752 275.896 375.588 275.896 375.588C277.928 385.004 277.224 393.712 275.688 400.848C273.116 412.42 285.06 422.084 295.888 417.188C299.048 415.728 300.872 414.444 300.872 414.444V414.444Z" fill="#D9A486"/>
</g>
<g id="Group_27">
<path id="Vector_27" d="M316.924 467.716H291.028C289.968 467.716 288.948 467.296 288.2 466.544L269.6 447.944L237.256 442.128L212.84 466.544C212.088 467.296 211.072 467.716 210.012 467.716H177.352C175.144 467.716 173.352 465.924 173.352 463.716V441.532L149.712 439.736C148.644 439.656 147.656 439.152 146.964 438.336C143.712 434.5 115.684 399.2 133.656 341.848C134.144 340.284 135.536 339.18 137.168 339.056C138.816 338.948 140.344 339.812 141.064 341.284C141.204 341.568 154.576 368.34 173.664 368.656C174.732 356.76 181.94 319.712 229.552 285.436C230.776 284.556 232.376 284.436 233.716 285.12C235.052 285.804 235.892 287.18 235.892 288.68V337.456C249.536 332.9 287.212 314.956 287.212 255.704C287.212 253.916 288.396 252.348 290.116 251.856C291.836 251.368 293.668 252.072 294.612 253.596C296.496 256.628 338.912 325.912 320.744 376.46C328.708 375.812 343.304 372.372 352.044 356.62C352.8 355.26 354.272 354.484 355.824 354.568C357.376 354.676 358.724 355.676 359.276 357.132C359.452 357.592 376.436 403.768 334.052 443.536C333.544 444.016 332.912 444.352 332.232 444.512L320.928 447.172V463.716C320.924 465.924 319.132 467.716 316.924 467.716V467.716ZM292.684 459.716H312.924V444C312.924 442.144 314.2 440.532 316.008 440.104L329.344 436.968C357.12 410.376 356.368 381.724 353.884 368.064C338.424 386.692 315.424 384.576 314.344 384.46C313.056 384.328 311.912 383.58 311.272 382.452C310.636 381.324 310.584 379.96 311.132 378.784C327.772 343.28 306.196 292.764 294.468 269.888C287.492 334.9 233.252 346.528 232.668 346.644C231.484 346.88 230.272 346.576 229.348 345.816C228.42 345.056 227.884 343.92 227.884 342.724V296.704C181.176 333.532 181.476 371.92 181.484 372.32C181.532 374.344 180.056 376.084 178.052 376.368C159.576 379.008 145.756 363.388 138.832 353.152C128.344 397.264 146.848 425.152 152.04 431.888L177.652 433.832C179.736 433.992 181.348 435.728 181.348 437.82V459.716H208.352L233.076 434.992C234 434.068 235.332 433.664 236.612 433.884L272.248 440.292C273.052 440.436 273.792 440.824 274.368 441.4L292.684 459.716ZM331.312 440.616H331.352H331.312Z" fill="black"/>
</g>
<g id="Group_28">
<path id="Vector_28" d="M216.052 461.704C215.208 461.704 214.36 461.436 213.64 460.892C190.976 443.732 185.072 413.392 184.832 412.112C184.564 410.688 185.088 409.228 186.204 408.3C187.32 407.372 188.848 407.124 190.2 407.64L194.516 409.3C199.952 411.444 206 408.828 208.308 403.352C209.164 401.316 211.508 400.356 213.548 401.22C215.584 402.076 216.54 404.424 215.68 406.46C212.084 414.996 203.208 419.496 194.576 417.656C197.352 426.476 203.604 441.736 215.78 452.324L233.096 434.972C234.024 434.048 235.336 433.624 236.64 433.864L272.268 440.292C273.068 440.436 273.808 440.824 274.384 441.4L279.28 446.296C290.988 431.68 297.012 413.412 297.076 413.216C297.756 411.12 300.008 409.964 302.116 410.644C304.216 411.324 305.368 413.58 304.688 415.68C304.388 416.608 297.168 438.58 282.496 454.868C281.76 455.684 280.724 456.16 279.628 456.188C278.58 456.288 277.472 455.796 276.696 455.02L269.616 447.944L237.284 442.112L218.896 460.536C218.108 461.308 217.084 461.704 216.052 461.704V461.704Z" fill="black"/>
</g>
<g id="Group_29">
<path id="Vector_29" d="M284.356 421.34C283.836 421.34 283.308 421.236 282.8 421.02C274.492 417.508 269.86 408.652 271.792 399.968C272.864 394.98 273.304 390.068 273.112 385.292C270.312 388.46 266.68 392.272 262.536 395.92C259.1 398.956 254.916 400.564 250.44 400.564C242.2 400.564 235.188 395.24 232.668 387.86C231.692 388.432 230.688 389.076 229.8 389.756C228.048 391.096 225.536 390.768 224.192 389.012C222.848 387.26 223.18 384.748 224.936 383.404C228.776 380.464 233.888 378.256 234.104 378.164C235.344 377.636 236.764 377.76 237.88 378.5C239.004 379.24 239.68 380.496 239.68 381.84C239.68 388.464 245.268 392.564 250.444 392.564C252.94 392.564 255.292 391.648 257.252 389.92C266.12 382.12 272.62 373.3 272.684 373.212C273.616 371.944 275.208 371.34 276.744 371.664C278.284 371.992 279.488 373.192 279.82 374.732C281.676 383.336 281.608 392.404 279.612 401.676C278.312 407.528 281.972 411.98 285.924 413.652C287.956 414.512 288.912 416.86 288.048 418.896C287.4 420.424 285.916 421.34 284.356 421.34V421.34Z" fill="black"/>
</g>
</g>
</g>
</svg>
