<?xml version="1.0"?>
<svg xmlns="http://www.w3.org/2000/svg" id="Layer_1" data-name="Layer 1" viewBox="0 0 512 512" width="512" height="512"><title>Clove</title><path d="M375.845,147.844a15.967,15.967,0,0,0-14.34-1.2,110.42,110.42,0,1,0-211.013,0,16.174,16.174,0,0,0-22,17.131C134.9,206.517,163,243.648,202,261.9V454.837c0,29.531,24.469,53.556,54,53.556s54-24.025,54-53.556V261.9c39-18.248,67.1-55.379,73.507-98.12A16.052,16.052,0,0,0,375.845,147.844ZM256,19.607A94.418,94.418,0,0,1,335.835,164.44L320.364,175.5l-49.073-30.361a28.9,28.9,0,0,0-30.581,0L191.667,175.5,176.153,164.42A94.418,94.418,0,0,1,256,19.607Zm42.714,229.677a7.8,7.8,0,0,0-4.714,7.39V454.837c0,20.708-17.292,37.556-38,37.556s-38-16.848-38-37.556V256.674a7.8,7.8,0,0,0-4.714-7.39,113.986,113.986,0,0,1-68.84-87.771l37.866,27.009a15.982,15.982,0,0,0,17.714.585l49.089-30.362a13,13,0,0,1,13.75,0l49.077,30.362a15.942,15.942,0,0,0,17.69-.586l37.924-27A113.974,113.974,0,0,1,298.714,249.284Z"/></svg>
