<?xml version="1.0" encoding="iso-8859-1"?>
<!-- Generator: Adobe Illustrator 19.0.0, SVG Export Plug-In . SVG Version: 6.00 Build 0)  -->
<svg version="1.1" id="Layer_1" xmlns="http://www.w3.org/2000/svg" xmlns:xlink="http://www.w3.org/1999/xlink" x="0px" y="0px"
	 viewBox="0 0 512.865 512.865" style="enable-background:new 0 0 512.865 512.865;" xml:space="preserve">
<g>
	<g>
		<path d="M504.633,318.233c-24-73.2-73.2-107.6-120.8-140.8c-50.8-35.2-98.8-69.2-106.8-149.2c-0.4-2.4-0.4-4.8-0.8-7.6
			c0-0.8,0-2,0-2.8c-0.4-4-0.4-8.4-0.4-12.4c0.4-0.4,0.4-0.8,0.4-1.2c0-2.4-1.6-4-4-4c-0.4,0-0.8,0-0.8,0h-30c-0.4,0-0.8,0-0.8,0
			c-2.4,0-4,1.6-4,4c0,4.4,0,8.4-0.4,12.8c0,1.6,0,3.2-0.4,4.8c0,0.4,0,0.4,0,0.8c-6,84-55.2,118.8-107.2,155.2
			c-48,32.8-96.8,67.2-120.4,140.4c-23.2,72.4,6.4,128,42,156c22,17.2,47.6,26.4,73.2,26.4c19.6,0,39.2-5.2,57.6-16
			c21.6,18,47.6,28,75.2,28h0.4c27.6,0,53.6-10,75.2-28c18.4,10.4,38,16,57.6,16c25.6,0,51.2-8.8,73.2-26.4
			C498.233,446.233,527.833,390.633,504.633,318.233z"/>
	</g>
</g>
<g>
</g>
<g>
</g>
<g>
</g>
<g>
</g>
<g>
</g>
<g>
</g>
<g>
</g>
<g>
</g>
<g>
</g>
<g>
</g>
<g>
</g>
<g>
</g>
<g>
</g>
<g>
</g>
<g>
</g>
</svg>
