<svg height="512" viewBox="0 0 128 128" width="512" xmlns="http://www.w3.org/2000/svg"><g><path d="m116.3 20.847a14.219 14.219 0 0 0 -15.218 2.728l-.026.025c-1.893 1.777-4.692 4.541-7.166 7.01 2.237-7.981 3.034-16.767-.378-21.862a9.066 9.066 0 0 0 -7.925-4c-12.487.002-18.671 3.422-22.31 23.693l-.4 2.257c-2.865 16.006-4.595 25.667-8.837 26.19a2.479 2.479 0 0 1 -2.24-.92c-2.516-2.651-3.572-9.9-2.405-16.5 1.123-6.357.58-10.436-1.762-13.229-2.145-2.556-5.7-3.8-10.879-3.8a10.7 10.7 0 0 0 -8.059 3.62c-3.745 4.093-5.543 11.464-4.809 19.718.3 3.392 1.1 9.261 1.835 14.346-7.252-1.76-13.194-1.406-16.906 1.049a8.646 8.646 0 0 0 -3.924 6.444c-.969 8.669 2.871 14.773 25.15 20.118 1.82 10.92 3.331 19.145 4.163 22.665l.032.135c2.029 8.586 3.739 12.713 20.3 12.713 6.8 0 11.034-1.126 13.339-3.543 2.1-2.2 2.24-5.118 2.131-7.415-.157-3.309-.579-32.9 32.62-53.022 13.683-7.821 20.624-17.167 20.624-27.767a11.4 11.4 0 0 0 -6.95-10.653zm-15.457 35.406c-18.902 11.456-27.443 25.913-31.283 37.347a20.184 20.184 0 0 1 -12.05-2.11 1.75 1.75 0 1 0 -1.77 3.02 23.8 23.8 0 0 0 11.06 2.82c.539 0 1.09-.024 1.65-.069a52.144 52.144 0 0 0 -1.948 15.2c.116 2.441-.222 3.842-1.168 4.833-1.556 1.632-5.191 2.459-10.806 2.459-14.522 0-15.167-2.728-16.889-10.018l-.033-.134c-.831-3.518-2.441-12.333-4.307-23.582a1.751 1.751 0 0 0 -1.33-1.419c-22.947-5.333-24.269-10.669-23.604-16.592a5.118 5.118 0 0 1 2.376-3.914 8.551 8.551 0 0 1 2.459-1.069 15.03 15.03 0 0 1 -.181 3 1.751 1.751 0 0 0 1.441 2.012 1.668 1.668 0 0 0 .289.025 1.751 1.751 0 0 0 1.728-1.462 17.681 17.681 0 0 0 .192-4.064c.232-.007.463-.016.7-.016a35.586 35.586 0 0 1 9.961 1.669 1.749 1.749 0 0 0 2.233-1.931q-.221-1.5-.422-2.894a37.392 37.392 0 0 0 10.128 1.51 1.75 1.75 0 1 0 0-3.5c-.067 0-6.681-.035-10.691-2-.611-4.425-1.024-7.8-1.212-9.909-.639-7.184.858-13.715 3.905-17.045a7.189 7.189 0 0 1 5.477-2.483c4.077 0 6.759.834 8.2 2.55 1.39 1.656 1.808 4.375 1.286 8.471a15.946 15.946 0 0 1 -4.554-2.088 1.748 1.748 0 1 0 -2.27 2.66 20.1 20.1 0 0 0 6.29 2.939c-.967 7.406.427 14.609 3.558 17.908a5.983 5.983 0 0 0 5.207 1.985c4.331-.534 6.547-4.316 8.479-11.986a72.451 72.451 0 0 0 9.676 1.864 1.477 1.477 0 0 0 .21.01 1.752 1.752 0 0 0 .22-3.49 66.272 66.272 0 0 1 -9.314-1.8c.817-3.789 1.628-8.318 2.582-13.649l.405-2.256c3.377-18.837 8.343-20.805 18.86-20.805a5.577 5.577 0 0 1 5.017 2.45c3.484 5.2 1.163 17.066-2.468 25.888a1.749 1.749 0 0 0 2.868 1.89c.084-.084 8.381-8.5 12.439-12.315a10.709 10.709 0 0 1 11.438-2.118 7.979 7.979 0 0 1 4.873 7.455 19.875 19.875 0 0 1 -1.5 7.527 18.821 18.821 0 0 1 -5.76-3.047 1.752 1.752 0 1 0 -2.35 2.6 21.324 21.324 0 0 0 6.531 3.6c-3.037 5.069-8.312 9.778-15.828 14.073z"/><path d="m41.518 98.388c-.292-1.617-.6-3.373-.927-5.247a1.75 1.75 0 1 0 -3.449.6c.327 1.884.638 3.647.93 5.271a1.753 1.753 0 0 0 1.721 1.439 1.844 1.844 0 0 0 .312-.027 1.752 1.752 0 0 0 1.413-2.036z"/><path d="m73.322 72.947a18.557 18.557 0 0 1 -7.222-3.307 1.75 1.75 0 1 0 -2.2 2.72 21.87 21.87 0 0 0 8.782 4.028 1.851 1.851 0 0 0 .321.029 1.75 1.75 0 0 0 .32-3.47z"/><path d="m88.227 60.987c-.05-.016-5.005-1.6-7.7-3.842a1.749 1.749 0 1 0 -2.24 2.688c3.228 2.691 8.657 4.419 8.887 4.492a1.75 1.75 0 0 0 1.052-3.338z"/><path d="m74.919 25.831a40.879 40.879 0 0 0 8.428 1.852c.063.006.126.009.188.009a1.75 1.75 0 0 0 .185-3.492 37.99 37.99 0 0 1 -7.573-1.649 1.75 1.75 0 0 0 -1.228 3.277z"/><path d="m26.13 67.289a1.75 1.75 0 0 0 -1.312 2.1c.332 1.437.013 5.08-.266 7.038a1.75 1.75 0 0 0 3.465.5c.083-.584.8-5.78.212-8.32a1.757 1.757 0 0 0 -2.099-1.318z"/><path d="m55.708 80.583c-.1 0-9.676-.068-14.889-3.835a1.75 1.75 0 1 0 -2.048 2.838c6.133 4.432 16.494 4.5 16.932 4.5a1.75 1.75 0 0 0 0-3.5z"/><path d="m42.481 106.462a1.75 1.75 0 1 0 -1.087 3.326c2.427.794 9.238 1.386 13.144 1.386a11.247 11.247 0 0 0 2.614-.193 1.783 1.783 0 0 0 1.179-2.206 1.712 1.712 0 0 0 -2.158-1.151c-1.273.24-10.75-.201-13.692-1.162z"/><path d="m80.387 40.165a1.75 1.75 0 0 0 -.272-3.489 14.007 14.007 0 0 1 -5.012-.5 1.75 1.75 0 0 0 -1.29 3.254 14.865 14.865 0 0 0 5.128.781c.759.003 1.302-.035 1.446-.046z"/><path d="m106.363 45.6c-1.282-.369-5.027-1.7-6.934-3.429a1.75 1.75 0 1 0 -2.348 2.6c2.893 2.616 8.1 4.133 8.315 4.2a1.75 1.75 0 1 0 .967-3.363z"/></g></svg>