<svg width="512" height="512" viewBox="0 0 512 512" fill="none" xmlns="http://www.w3.org/2000/svg">
<g id="washing-hands 1" clip-path="url(#clip0)">
<g id="Bubbles">
<g id="Bubbles_2">
<path id="Vector" d="M14.7083 167.096C14.7083 180.357 25.4976 191.146 38.7589 191.146C52.0212 191.146 62.8105 180.357 62.8105 167.096C62.8105 153.834 52.0212 143.044 38.7589 143.044C25.4976 143.045 14.7083 153.835 14.7083 167.096V167.096ZM47.8091 167.096C47.8091 172.086 43.748 176.146 38.7579 176.146C33.7678 176.146 29.7077 172.086 29.7077 167.096C29.7077 162.105 33.7678 158.045 38.7579 158.045C43.748 158.045 47.8091 162.106 47.8091 167.096Z" fill="black"/>
<path id="Vector_2" d="M484.15 211.79C468.795 211.79 456.301 224.283 456.301 239.64C456.301 254.996 468.794 267.489 484.15 267.489C499.507 267.489 512 254.996 512 239.64C512 224.283 499.507 211.79 484.15 211.79V211.79ZM484.15 252.489C477.065 252.489 471.301 246.725 471.301 239.64C471.301 232.554 477.065 226.79 484.15 226.79C491.236 226.79 497 232.554 497 239.64C497 246.725 491.236 252.489 484.15 252.489Z" fill="black"/>
<path id="Vector_3" d="M47.4598 94.5826C65.6652 94.5826 80.4775 79.7712 80.4775 61.5648C80.4775 43.3584 65.6662 28.548 47.4598 28.548C29.2533 28.548 14.443 43.3594 14.443 61.5648C14.443 79.7702 29.2543 94.5826 47.4598 94.5826V94.5826ZM47.4598 43.5484C57.395 43.5484 65.4772 51.6305 65.4772 61.5658C65.4772 71.501 57.395 79.5832 47.4598 79.5832C37.5245 79.5832 29.4423 71.501 29.4423 61.5658C29.4423 51.6305 37.5255 43.5484 47.4598 43.5484Z" fill="black"/>
<path id="Vector_4" d="M466.837 377.033C466.837 372.475 465.697 367.955 463.541 363.96C461.922 360.96 461.496 357.459 462.341 354.098C463.149 350.887 463.493 347.565 463.364 344.225C462.685 326.618 448.387 311.973 430.813 310.884C421.089 310.283 411.863 313.609 404.8 320.25C397.832 326.798 393.837 336.035 393.837 345.592C393.837 356.223 398.608 366.13 406.925 372.77C409.617 374.919 411.385 377.924 411.902 381.223C412.014 381.942 412.16 382.677 412.336 383.414C415.133 395.061 425.379 403.771 437.252 404.594C437.918 404.64 438.58 404.663 439.24 404.663C446.26 404.663 452.879 402.064 458.053 397.236C463.636 392.03 466.837 384.665 466.837 377.033V377.033ZM447.82 386.271C445.232 388.685 441.844 389.876 438.289 389.632C432.88 389.257 428.206 385.26 426.923 379.919C426.843 379.583 426.776 379.25 426.723 378.911C425.623 371.889 421.916 365.545 416.285 361.049C411.553 357.271 408.839 351.637 408.839 345.594C408.839 340.079 411.053 334.961 415.074 331.181C418.78 327.697 423.546 325.819 428.609 325.819C429.033 325.819 429.459 325.832 429.885 325.859C439.866 326.477 447.989 334.799 448.375 344.805C448.448 346.717 448.253 348.613 447.793 350.439V350.44C446.029 357.447 446.935 364.78 450.341 371.087C451.333 372.925 451.836 374.926 451.836 377.034C451.837 380.573 450.41 383.854 447.82 386.271V386.271Z" fill="black"/>
</g>
</g>
<g id="Right">
<path id="thumb-c" d="M412 278.791L422.5 304.291L480.5 487H317L288 410.5L131.5 198.5L317 91.2906L395 147.791C400.235 149.151 403.971 149.137 412 147.791L432 91.2906C440.33 76.4217 459.5 66.2906 470.5 71.2906C481.5 76.2906 484.932 81.5113 484.5 91.2906L432 252.291C424.313 262.564 419.95 268.356 412 278.791Z" fill="#FFDFCF"/>
<path id="Vector 1" d="M315.5 490L290 413.5" stroke="black" stroke-width="10"/>
<path id="Vector 2" d="M479.5 491.5L451 409.5" stroke="black" stroke-width="10"/>
<path id="thumb" d="M421 308L410.5 282.5C418.45 272.066 422.813 266.274 430.5 256L483 95C483.432 85.2208 480 80 469 75C458 70 438.83 80.1312 430.5 95L410.5 151.5C402.471 152.847 398.735 152.86 393.5 151.5" stroke="black" stroke-width="10"/>
<path id="fingersC" d="M190.001 25.378C198.389 33.568 202.776 37.6894 212.501 47.878C199.428 51.6392 192.495 54.7579 183.501 68.878C179.356 77.9755 177.468 83.2179 178.5 94C188.615 108.165 192.121 110.422 199.5 118L181.001 136.378L154.001 163.378L124.001 190.878L116.501 181.878C113.762 177.78 112.294 175.016 110.001 167.878C109.965 160.559 110.591 156.627 116.501 150.878C120.825 145.83 124.502 143.871 132.501 141.378L132.447 141.308C123.606 129.924 118.632 123.52 110.001 110.378C110.595 99.8141 111.948 94.6191 116.501 86.878C120.459 81.3143 123.609 79.1073 132.501 78.378C128.23 71.9571 126.145 68.2865 124.001 61.378C124.886 54.2441 124.777 46.7974 131.501 41.378C140.751 35.2113 148.262 36.9747 162.501 43.378C162.357 34.4607 164.043 30.4241 171.001 25.378C179.309 22.0641 183.392 22.3539 190.001 25.378Z" fill="#FFDFCF"/>
<path id="fingers" d="M212.5 46.5L190 24C183.39 20.9759 179.308 20.686 171 24C164.041 29.0461 162.356 33.0826 162.5 42M162.5 42C148.26 35.5967 140.75 33.8333 131.5 40C124.776 45.4194 124.884 52.866 124 60C126.144 66.9084 128.229 70.5791 132.5 77M162.5 42L183.5 67.5M132.5 77C123.608 77.7293 120.458 79.9363 116.5 85.5C111.947 93.2411 110.594 98.4361 110 109C118.648 122.169 123.625 128.572 132.5 140M132.5 77L181 135M132.5 140C124.501 142.493 120.824 144.452 116.5 149.5C110.59 155.249 109.963 159.181 110 166.5C112.293 173.638 113.76 176.402 116.5 180.5L124 189.5M132.5 140L154 162" stroke="black" stroke-width="10"/>
</g>
<g id="Left">
<path id="LHC" d="M35.9724 304.575L23.4365 314.345C14.7774 321.094 11.2907 332.555 14.7239 342.983L52.1931 456.791C57.4492 472.756 76.2438 479.613 90.5461 470.785L134.53 443.634C140.283 440.083 147.175 439.032 153.85 440.099C167.707 442.315 178.071 441.739 193.59 438.503C194.862 438.238 196.11 437.866 197.325 437.404L361.327 375.112C363.104 374.438 364.825 373.595 366.345 372.454C374.978 365.969 376.527 359.183 373.6 345.283C373.223 343.497 372.649 341.739 371.73 340.161C367.773 333.37 362.291 331.277 348 332.097L275.15 342.296C273.719 342.497 272.266 342.587 270.823 342.514C259.05 341.92 254.933 339.126 256.905 329.69C257.478 326.948 258.839 324.441 260.485 322.174L387.76 146.871C389.572 144.375 390.969 141.585 391.664 138.58C393.393 131.101 393.449 125.895 391.974 119.716C391.157 116.298 389.414 113.115 386.782 110.785C383.34 107.737 379.671 106.024 373 104.597C374.39 98.4982 374.429 94.7242 373.494 89.2406C373.194 87.4788 372.674 85.7552 371.883 84.1527C368.963 78.239 365.325 74.8248 356.22 72.8533C350.933 71.7083 345.399 72.9212 340.873 75.8866C333.481 80.7312 328.02 85.968 321.5 95.5973C321.528 85.5949 322.926 80.3178 316.51 74.1356C314.631 72.3255 312.272 71.0494 309.72 70.5078C300.01 68.4469 290.61 72.4672 273 86.0973C270.318 75.8603 267.765 70.3547 259.017 70.233C254.07 70.1641 249.608 72.9398 246.064 76.3927C182.252 138.561 144.836 175.47 79.5 239.097C60.5422 255.96 52.0261 268.163 45.3594 290.497C43.7076 296.031 40.5275 301.024 35.9724 304.575Z" fill="#FFDFCF"/>
<path id="LH" d="M9 325.597L35.9724 304.575C40.5275 301.024 43.7076 296.031 45.3594 290.497C52.0261 268.163 60.5422 255.96 79.5 239.097C144.836 175.47 182.252 138.561 246.064 76.3927C249.608 72.9398 254.07 70.1641 259.017 70.233C267.765 70.3547 270.318 75.8603 273 86.0973M273 86.0973C290.61 72.4672 300.01 68.4469 309.72 70.5078C312.272 71.0494 314.631 72.3255 316.51 74.1356C322.926 80.3178 321.528 85.5949 321.5 95.5973M273 86.0973L196.5 165.597M321.5 95.5973C328.02 85.968 333.481 80.7312 340.873 75.8866C345.399 72.9212 350.933 71.7083 356.22 72.8533C365.325 74.8248 368.963 78.239 371.883 84.1527C372.674 85.7552 373.194 87.4788 373.494 89.2406C374.429 94.7242 374.39 98.4982 373 104.597M321.5 95.5973L222.5 200.597M373 104.597C379.671 106.024 383.34 107.737 386.782 110.785C389.414 113.115 391.157 116.298 391.974 119.716C393.449 125.895 393.393 131.101 391.664 138.58C390.969 141.585 389.572 144.375 387.76 146.871L260.485 322.174C258.839 324.441 257.478 326.948 256.905 329.69C254.933 339.126 259.05 341.92 270.823 342.514C272.266 342.587 273.719 342.497 275.15 342.296L348 332.097C362.291 331.277 367.773 333.37 371.73 340.161C372.649 341.739 373.223 343.497 373.6 345.283C376.527 359.183 374.978 365.969 366.345 372.454C364.825 373.595 363.104 374.438 361.327 375.112L197.325 437.404C196.11 437.866 194.862 438.238 193.59 438.503C178.071 441.739 167.707 442.315 153.85 440.099C147.175 439.032 140.283 440.083 134.53 443.634L62.5 488.097M373 104.597L260 234.597" stroke="black" stroke-width="8"/>
</g>
<path id="TopFoam" d="M196 108.5C187.263 101.579 184.115 96.2409 182.5 83.5C183.157 71.3893 185.397 65.3148 192.5 56.5C199.023 51.8349 203.62 50.5396 214.5 52C221.777 35.4743 229.042 31.3675 239 29.5C253.664 28.2703 258.264 33.1152 265 44C282.343 33.3579 288.132 33.2618 295.5 37.5C309.138 43.6706 311.723 52.2305 310.5 64" stroke="black" stroke-width="10"/>
<path id="BottomFoam" d="M329 288C316.873 287.514 311.449 284.251 304.5 273V267.5L371.5 172L377.5 175.5C392.046 191.27 399.572 200.267 392 221.5C383.412 236.151 376.898 242.806 358 248C357.863 273.959 354.249 285.245 329 288Z" fill="white" stroke="black" stroke-width="10"/>
</g>
<defs>
<clipPath id="clip0">
<rect width="512" height="512" fill="white"/>
</clipPath>
</defs>
</svg>
